<svg xmlns="http://www.w3.org/2000/svg" viewBox="0 0 48 48" aria-hidden="true">
  <path fill="#FFC107" d="M43.6 20.5H42V20H24v8h11.3C33.9 31.9 29.5 35 24 35c-6.6 0-12-5.4-12-12s5.4-12 12-12c3 0 5.7 1.1 7.7 3l5.7-5.7C33.6 5 29.1 3 24 3 12.9 3 4 11.9 4 23s8.9 20 20 20 19.5-8.9 19.5-20c0-1.4-.1-2.3-.3-3.5z"/>
  <path fill="#FF3D00" d="M6.3 14.7l6.6 4.8C14.6 16.2 18.9 12.9 24 12.9c3 0 5.7 1.1 7.7 3l5.7-5.7C33.6 5 29.1 3 24 3 16 3 9.2 7.6 6.3 14.7z"/>
  <path fill="#4CAF50" d="M24 43c5.3 0 10.1-2 13.6-5.3l-6.3-5.2C29 34.2 26.7 35 24 35c-5.5 0-9.9-3.1-11.7-7.6l-6.7 5.2C8.3 38.8 15.6 43 24 43z"/>
  <path fill="#1976D2" d="M43.6 20.5H42V20H24v8h11.3c-1.1 3.3-3.8 5.6-6.7 7.5l6.3 5.2C37.5 39.8 43.5 35.5 43.5 23c0-1.4-.1-2.5-.3-3.5z"/>
</svg>
